<?xml version="1.0" encoding="UTF-8"?>
<svg id="Capa_2" data-name="Capa 2" xmlns="http://www.w3.org/2000/svg" viewBox="0 0 295.99 393.13">
  <defs>
    <style>
      .cls-1, .cls-2 {
        fill: #fff;
      }

      .cls-2 {
        fill-rule: evenodd;
      }
    </style>
  </defs>
  <g id="Capa_1-2" data-name="Capa 1">
    <g>
      <path class="cls-1" d="M114.59,31.14S111.28,.44,72.2,.44s-36.43,1.96-36.43,1.96C35.77,2.4,0-5.44,0,37.02l1.32,236.98s-1.32,20.25,9.94,22.21l30.47,.65-.66-155.33s1.32-6.53,18.55-6.53,34.44-.65,34.44-.65c0,0,17.22,3.92,19.21-18.29,1.98-22.2,1.32-84.92,1.32-84.92Zm-43.06,64.03s-3.97,1.96-18.55,1.31c-14.57-.65-10.6-12.41-10.6-12.41l-.66-33.32c3.31-11.11,2.65-15.68,18.55-14.37,15.9,1.31,13.91,12.41,13.91,12.41,0,0-.66,27.44,0,36.58,.67,9.14-2.65,9.8-2.65,9.8Z"/>
      <path class="cls-1" d="M181.3,177.84l.66,85.37s-.66,31.84,49.62,33.18c50.28,1.33,57.56-29.85,58.89-42.51,1.32-12.67,5.29-44.11,5.29-108.1,0,0,3.97-29.33-21.17-29.33s-54.25-.67-54.25-.67l-1.98-57.35s.66-20.67,17.86-19.33c17.2,1.33,18.53,35.6,18.53,47.6s2.65,11.33,11.25,12,19.19,0,19.19,0c0,0,9.26,4,9.26-12s-1.99-53.6-1.99-53.6c0,0,2.65-31.69-28.45-32.36s-50.28,0-50.28,0c0,0-31.76-5.64-32.42,47.02l.66,83.35s.66,27.33,21.83,24l27.79,1.33s20.51-2.67,20.51,16.67-.66,55.44-.66,55.44c0,0,2.65,19.33-19.85,21.33,0,0-15.22-15.94-13.23-44.6,1.98-28.67,.66-26.77,.66-26.77l-18.9-5.4-18.82,4.73Z"/>
      <path class="cls-2" d="M160.66,286.82c4.9-5.13,8.48-13.41,8.48-26.65l-1.33-236.95s-.11-12.24-.11-21.9l-18.29-.18C145.96,.33,143.04-.03,140.59,0V33.2h4.42l.6-21.08,.07-2.57h16.47l-.05,2.7-.68,33.56-.05,2.59h-20.78v35.72h4.34v-30.1h16.5v45.37h-20.84v34.6h4.34v-28.98h15.71v2.64s.11,39.7,.11,39.7v2.65s-2.64,0-2.64,0h-17.52v33.97h4.34v-29.67h15.71v2.64s.11,40.27,.11,40.27v2.65s-2.64,0-2.64,0h-17.52v35.6h4.34v-30.99h15.72v45.69h-20.06v28.32h4.34v-24.13h15.72v32.47h0ZM135.31,.83c-7.98,2.79-7.9,12.11-7.83,20.35,0,.31,0,.62,.01,.93l.52,113.12s-1.33,6.44-18.58,6.44-34.51,.64-34.51,.64c0,0-17.25,3.22-19.24,25.12s-1.33,98.53-1.33,98.53c0,0,3.32,30.27,42.47,30.27s36.5-1.93,36.5-1.93c0,0,11.96,2.58,22.06-3.31v-31.35h-5.13v24.15h-14.94v-38.92h20.06v-35.1h-5.13v30.99h-14.94v-46.19h20.16l-.09-34.97h-5.13v29.67h-14.94v-44.56h20.16l-.09-34.41h-5.13v28.98h-14.94v-45.19h20.84V59.31h-5.91v30.1h-14.94V43.09h20.9l.57-28.27h-5.93l-.6,21.08-.07,2.57h-14.86V.83h.01Zm-26.56,259.99c-15.93-1.29-13.93-12.24-13.93-12.24,0,0,.66-48.3,0-57.32-.66-9.02,2.65-9.66,2.65-9.66,0,0,3.98-1.93,18.58-1.29,14.6,.64,10.62,12.23,10.62,12.23l.66,54.1c-.35,1.16-.66,2.25-.95,3.27-2.41,8.58-3.39,12.06-17.63,10.91Z"/>
      <path class="cls-1" d="M.65,324.22h15.58l8.97,22.47,4.91,13.97,4.81-13.5,9.06-22.94h15.58l-27.94,68.91h-3.02L.65,324.22Zm67.09,67.49v-67.5h13.5v67.5h-13.5Zm51.04-69.95h1.42l28.41,69.95h-15.2l-2.74-7.27h-22.37l-2.64,7.27h-15.29l28.41-69.95Zm6.89,50.04l-6.14-17.56-6.32,17.56h12.46Zm27.88,6.41h12.93c1.95,0,3.56-.66,4.82-1.98,1.32-1.32,1.98-2.93,1.98-4.81v-47.2h13.69v47.2c0,6.86-1.7,11.96-5.1,15.29-3.34,3.34-8.34,5-15.01,5h-13.31v-13.5Zm48.41,13.5v-67.5h33.8v13.5h-20.3v13.5h17.75v13.5h-17.75v13.5h21.43v13.5h-34.93Zm46.16-18.5c2.89,2.08,5.85,3.52,8.87,4.34,3.08,.76,5.92,1.13,8.5,1.13l1.89-.09c1.95-.13,3.59-.79,4.91-1.98,1.38-1.2,2.08-2.61,2.08-4.25,0-1.95-.6-3.46-1.79-4.53-1.2-1.13-2.93-2.11-5.19-2.93-6.23-2.27-11.14-4.97-14.73-8.12-3.52-3.15-5.29-7.3-5.29-12.46,0-3.71,.79-7.11,2.36-10.2,1.64-3.08,3.9-5.54,6.8-7.36,2.89-1.83,6.2-2.83,9.91-3.02l2.27-.09c4.15,0,9,.98,14.54,2.93l-1.7,13.03c-5.1-2.08-9.69-3.02-13.78-2.83-2.14,.13-3.81,.85-5,2.17-1.13,1.26-1.7,2.83-1.7,4.72s.66,3.49,1.98,4.63c1.32,1.07,3.18,2.01,5.57,2.83,5.98,2.2,10.73,4.97,14.25,8.31,3.52,3.27,5.29,7.4,5.29,12.37,0,3.96-.91,7.52-2.74,10.67-1.83,3.08-4.44,5.51-7.84,7.27-3.34,1.76-7.24,2.64-11.71,2.64-2.64,0-5.66-.38-9.06-1.13-3.4-.76-6.86-2.05-10.38-3.87l1.69-14.18Z"/>
    </g>
  </g>
</svg>